<?xml version="1.0" standalone="no"?>
<!DOCTYPE svg PUBLIC "-//W3C//DTD SVG 20010904//EN"
 "http://www.w3.org/TR/2001/REC-SVG-20010904/DTD/svg10.dtd">
<svg version="1.0" xmlns="http://www.w3.org/2000/svg"
 width="225.000000pt" height="225.000000pt" viewBox="0 0 225.000000 225.000000"
 preserveAspectRatio="xMidYMid meet">

<g transform="translate(0.000000,225.000000) scale(0.100000,-0.100000)"
fill="#000000" stroke="none">
<path d="M925 2120 c-159 -35 -292 -138 -356 -274 -29 -62 -32 -65 -86 -82
-241 -76 -392 -351 -328 -597 16 -63 55 -146 91 -193 21 -27 22 -34 12 -70
-18 -63 -13 -190 11 -266 43 -136 157 -259 290 -314 57 -24 81 -28 184 -30
l118 -3 44 -40 c189 -174 505 -157 687 38 36 38 76 93 92 128 28 59 32 63 84
79 240 76 391 351 327 597 -16 60 -61 155 -93 196 -17 20 -18 30 -9 60 6 20
10 74 11 121 0 202 -124 388 -313 466 -57 24 -81 28 -184 30 l-118 3 -37 33
c-52 46 -100 75 -168 99 -66 23 -199 33 -259 19z m263 -162 c36 -18 65 -37 65
-42 -1 -6 -91 -62 -201 -125 -110 -64 -207 -122 -216 -130 -14 -12 -16 -48
-16 -307 0 -162 -2 -294 -4 -294 -2 0 -42 22 -88 48 l-83 48 -3 230 c-3 261 5
333 50 417 71 132 196 200 352 193 66 -4 91 -10 144 -38z m477 -152 c75 -37
140 -104 176 -181 30 -63 46 -156 35 -198 -6 -25 -9 -23 -218 99 -117 68 -220
124 -229 124 -10 0 -130 -65 -269 -145 l-251 -144 3 101 3 102 213 123 c117
67 231 129 255 138 28 10 71 14 132 12 76 -2 99 -6 150 -31z m-1127 -688 c9
-8 114 -70 232 -137 118 -68 226 -130 239 -138 l24 -15 -44 -27 c-24 -15 -63
-38 -86 -51 l-41 -23 -214 123 c-240 138 -300 187 -345 284 -24 53 -28 73 -28
156 0 84 3 102 28 152 35 71 100 139 163 171 l49 25 3 -253 c2 -225 4 -254 20
-267z m1073 286 c238 -137 291 -180 337 -273 24 -50 27 -67 27 -156 0 -87 -3
-107 -27 -157 -33 -72 -93 -137 -158 -172 l-50 -27 0 244 c0 219 -2 247 -17
266 -10 11 -124 82 -253 157 -129 74 -238 139 -242 143 -7 6 136 98 156 100 5
1 107 -56 227 -125z m-377 -85 l106 -61 0 -128 0 -128 -107 -62 -106 -61 -109
62 -108 62 0 127 0 127 103 61 c56 33 105 60 109 61 3 1 54 -26 112 -60z m291
-167 l80 -48 0 -274 0 -275 -32 -67 c-42 -89 -101 -151 -182 -191 -60 -29 -73
-32 -161 -32 -82 0 -103 4 -150 26 -110 53 -116 42 96 164 104 59 204 119 222
132 l32 24 0 295 c0 161 3 294 8 294 4 -1 43 -22 87 -48z m-189 -447 c-6 -17
-435 -261 -481 -274 -63 -17 -169 -13 -231 9 -100 35 -186 119 -224 218 -22
58 -35 162 -22 181 7 10 55 -13 220 -108 115 -67 217 -121 225 -121 9 0 127
64 264 143 l248 143 3 -90 c1 -49 1 -95 -2 -101z"/>
</g>
</svg>
